<?xml version="1.0" encoding="UTF-8"?><svg id="Layer_1" xmlns="http://www.w3.org/2000/svg" viewBox="0 0 120 150"><defs><style>.cls-1,.cls-2{fill:#fff;}.cls-2{opacity:.2;}</style></defs><path d="m1.48,148.51V31h28.11l.12-14.46L45.14,1.49h30.15l15,15.06.11,14.44h28.11v117.51H1.48ZM73.19,31v-12.21h-26.38v12.21h26.38Z"/><path class="cls-1" d="m74.68,2.98l14.13,14.19.12,15.31h28.1v114.53H2.97V32.49h28.1l.12-15.32,14.55-14.19h28.93m-29.36,29.5h29.36v-15.19h-29.36v15.19M75.91,0h-31.37l-.87.84-14.55,14.19-.89.87v1.25s-.11,12.35-.11,12.35H0v120.49h120V29.5h-28.12l-.1-12.35v-1.22s-.87-.86-.87-.86L76.78.87l-.87-.87h0Zm-27.62,20.28h23.41v9.22h-23.41v-9.22h0Z"/><polygon class="cls-2" points="1.48 148.51 118.51 148.51 118.51 31 1.48 148.51"/><path class="cls-1" d="m14.35,103.37h12.06v5.96H6.09v-5.96c3.77-.44,4.21-1.68,3.67-3.57h-3.71v-4.99h1.92c-.2-.81-.34-1.62-.34-2.49,0-5.05,3.71-7.65,9.6-7.65,5.39,0,8.86,2.26,9.43,6.94l-6.33,1.01c-.27-1.58-1.21-2.36-3.07-2.36-1.95,0-2.96,1.01-2.96,2.8,0,.37.1.91.34,1.75h7.71v4.99h-6.77c.2,1.35.07,2.66-1.25,3.57Z"/><path class="cls-1" d="m31.11,96.27l12.02-1.84c.99,3.22,3.68,5.06,7.42,5.06,4.2,0,6.77-1.91,6.77-4.93s-2.23-4.6-7.16-4.6h-5.06v-8.61h4.86c4.4,0,6.7-1.58,6.7-4.34,0-3.02-2.23-4.73-6.17-4.73-3.28,0-5.58,1.64-6.57,4.6l-12.09-1.64c1.71-8.67,8.87-13.86,19.05-13.86,11.5,0,18.85,5.52,18.85,14,0,5.12-2.56,8.61-7.55,10.32,5.25,1.45,8.21,5.26,8.21,10.51,0,8.8-8.01,14.19-19.71,14.19s-18.33-6.04-19.58-14.13Z"/><path class="cls-1" d="m72.69,96.14l11.76-1.18c.85,2.5,3.35,3.94,6.9,3.94,4.47,0,7.29-2.43,7.29-6.18s-2.82-6.11-7.36-6.04c-3.15.07-5.45,1.25-6.63,3.55l-11.5-1.45,4.34-26.81h31.27v11.17h-21.28l-1.12,6.96c2.63-1.18,5.39-1.84,8.21-1.84,9.98-.13,16.82,5.78,16.82,15.18,0,9.99-7.88,16.82-19.38,16.82-10.71,0-18.13-4.8-19.31-14.13Z"/></svg>