<?xml version="1.0" encoding="UTF-8"?><svg id="Layer_1" xmlns="http://www.w3.org/2000/svg" viewBox="0 0 120 150"><defs><style>.cls-1,.cls-2{fill:#fff;}.cls-2{opacity:.2;}</style></defs><path d="m1.48,148.51V31h28.11l.12-14.46L45.14,1.49h30.15l15,15.06.11,14.44h28.11v117.51H1.48ZM73.19,31v-12.21h-26.38v12.21h26.38Z"/><path class="cls-1" d="m74.68,2.98l14.13,14.19.12,15.31h28.1v114.53H2.97V32.49h28.1l.12-15.32,14.55-14.19h28.93m-29.36,29.5h29.36v-15.19h-29.36v15.19M75.91,0h-31.37l-.87.84-14.55,14.19-.89.87v1.25s-.11,12.35-.11,12.35H0v120.49h120V29.5h-28.12l-.1-12.35v-1.22s-.87-.86-.87-.86L76.78.87l-.87-.87h0Zm-27.62,20.28h23.41v9.22h-23.41v-9.22h0Z"/><polygon class="cls-2" points="1.48 148.51 118.51 148.51 118.51 31 1.48 148.51"/><path class="cls-1" d="m27.98,103h12v5.93h-20.21v-5.93c3.75-.44,4.19-1.68,3.65-3.55h-3.69v-4.96h1.91c-.2-.8-.33-1.61-.33-2.48,0-5.03,3.69-7.61,9.55-7.61,5.36,0,8.82,2.25,9.39,6.91l-6.3,1.01c-.27-1.58-1.21-2.35-3.05-2.35-1.94,0-2.95,1.01-2.95,2.78,0,.37.1.9.33,1.74h7.68v4.96h-6.74c.2,1.34.07,2.65-1.24,3.55Z"/><path class="cls-1" d="m45.58,96.71c0-5.23,3.07-8.96,8.04-10.72-4.84-1.77-7.39-5.49-7.39-10.66,0-9.54,8.96-13.66,19.22-13.66s19.22,4.12,19.22,13.66c0,5.23-2.55,8.89-7.39,10.66,4.9,1.76,7.97,5.49,7.97,10.72,0,9.54-9.48,13.73-19.87,13.73s-19.81-4.18-19.81-13.73Zm26.74-1.31c0-3.14-2.88-4.84-6.93-4.84s-6.93,1.7-6.93,4.84,2.75,4.77,6.93,4.77,6.93-1.76,6.93-4.77Zm-.2-18.63c0-3.07-2.75-4.77-6.73-4.77s-6.73,1.7-6.73,4.77,2.75,4.71,6.73,4.71,6.73-1.63,6.73-4.71Z"/></svg>